<?xml version="1.0" standalone="no"?>
<!DOCTYPE svg PUBLIC "-//W3C//DTD SVG 20010904//EN"
 "http://www.w3.org/TR/2001/REC-SVG-20010904/DTD/svg10.dtd">
<svg version="1.0" xmlns="http://www.w3.org/2000/svg"
 width="800.000000pt" height="800.000000pt" viewBox="0 0 800.000000 800.000000"
 preserveAspectRatio="xMidYMid meet">
<metadata>
Created by potrace 1.11, written by Peter Selinger 2001-2013
</metadata>
<g transform="translate(0.000000,800.000000) scale(0.100000,-0.100000)"
fill="#000000" stroke="none">
<path d="M4178 7505 c-2 -1 -40 -6 -85 -9 -46 -4 -93 -9 -105 -11 -13 -3 -43
-7 -68 -10 -474 -57 -1178 -316 -1695 -623 -54 -32 -233 -158 -245 -172 -3 -3
-32 -27 -65 -52 -33 -25 -69 -54 -80 -65 -11 -10 -36 -31 -55 -47 -218 -178
-585 -567 -747 -791 -341 -473 -525 -896 -598 -1375 -29 -195 -22 -524 15
-700 5 -25 12 -61 15 -80 23 -144 117 -406 215 -601 81 -162 138 -251 551
-868 457 -682 408 -613 539 -766 412 -482 948 -766 1570 -832 151 -15 567 -8
672 12 13 3 42 7 65 10 62 7 116 16 133 20 8 2 31 7 50 10 139 23 618 162 705
205 11 5 70 29 130 53 240 97 579 268 745 376 30 19 57 38 60 41 3 3 50 39
104 80 206 154 462 389 696 639 36 39 171 202 216 261 27 36 51 67 54 70 9 9
53 72 121 175 333 504 503 1034 493 1540 -2 100 -5 139 -20 275 -8 68 -52 264
-81 360 -57 189 -168 431 -287 624 -77 124 -743 1123 -815 1221 -78 107 -84
115 -100 134 -9 10 -41 47 -71 81 -92 106 -194 203 -346 330 -148 123 -443
283 -657 356 -68 23 -237 71 -275 78 -23 5 -207 34 -262 42 -44 6 -486 15
-492 9z m397 -509 c555 -49 1011 -306 1360 -766 84 -111 764 -1129 852 -1275
146 -244 241 -503 277 -762 14 -92 15 -407 3 -458 -2 -11 -8 -45 -13 -75 -4
-30 -8 -57 -9 -60 -1 -3 -7 -32 -14 -65 -20 -89 -87 -288 -127 -372 -19 -40
-34 -76 -34 -79 0 -26 -196 -355 -274 -460 -17 -23 -40 -55 -51 -70 -93 -131
-394 -455 -575 -620 -330 -299 -623 -469 -913 -531 -86 -18 -319 -24 -407 -11
-414 64 -821 299 -1235 714 -79 79 -186 196 -241 264 -16 19 -31 37 -34 40
-44 40 -812 1187 -853 1273 -55 116 -72 206 -72 382 1 174 9 223 67 370 36 91
74 164 131 250 57 85 130 174 138 169 4 -2 10 -23 14 -47 25 -144 165 -458
303 -677 86 -137 774 -1167 847 -1268 101 -140 270 -326 375 -412 30 -25 57
-47 60 -50 3 -3 34 -26 70 -52 97 -68 274 -154 355 -172 107 -24 146 -29 235
-29 221 -1 338 53 640 293 85 68 191 162 265 235 38 38 181 200 213 242 190
246 330 569 359 828 10 89 10 300 1 385 -16 137 -70 314 -134 442 -50 100
-780 1186 -885 1318 -288 359 -614 660 -945 872 -109 69 -321 183 -374 200
-20 6 70 20 210 33 41 4 76 8 77 8 4 5 269 -1 338 -7z m-1233 -387 c29 -5 68
-11 85 -14 116 -18 321 -93 463 -168 336 -179 692 -490 988 -861 90 -113 790
-1159 831 -1242 57 -116 76 -210 76 -384 0 -119 -4 -172 -19 -230 -27 -104
-79 -230 -134 -323 -60 -100 -171 -249 -182 -242 -4 3 -11 24 -15 48 -25 146
-169 466 -307 684 -164 259 -877 1317 -897 1333 -4 3 -28 32 -55 65 -162 202
-384 389 -568 478 -62 30 -148 63 -183 71 -198 45 -331 42 -483 -10 -82 -28
-133 -60 -307 -189 -508 -379 -813 -812 -911 -1295 -19 -90 -25 -355 -12 -460
19 -147 70 -314 134 -443 52 -103 780 -1186 888 -1320 304 -379 649 -692 1001
-907 66 -40 282 -152 315 -163 13 -4 -9 -8 -110 -22 -68 -10 -215 -18 -305
-19 -441 -1 -806 109 -1125 337 -111 80 -125 92 -256 223 -61 61 -145 156
-186 210 -71 94 -716 1056 -828 1234 -159 253 -266 538 -304 807 -13 92 -15
407 -3 458 2 11 8 45 13 75 4 30 8 57 9 60 1 3 7 32 14 65 20 89 87 288 127
372 19 40 34 76 34 79 0 4 30 61 66 128 114 207 267 425 437 621 112 129 378
390 501 490 27 22 54 45 60 50 6 6 45 36 86 68 41 31 80 61 85 65 35 27 176
109 251 146 135 66 290 113 429 129 58 7 244 4 297 -4z m-52 -1272 c177 -46
405 -243 609 -527 84 -116 781 -1164 840 -1262 88 -148 168 -329 200 -453 44
-174 32 -332 -31 -409 l-29 -36 -87 4 c-76 3 -97 8 -164 40 -167 79 -354 254
-522 488 -85 118 -787 1174 -845 1270 -65 109 -142 270 -175 368 -74 220 -66
436 18 507 25 21 38 24 90 22 34 -1 77 -6 96 -12z"/>
</g>
</svg>
