<svg viewBox="0 0 207 204" version="1.1" xmlns="http://www.w3.org/2000/svg" xmlns:xlink="http://www.w3.org/1999/xlink" xml:space="preserve" xmlns:serif="http://www.serif.com/" style="fill-rule:evenodd;clip-rule:evenodd;stroke-linejoin:round;stroke-miterlimit:2;">
    <g transform="matrix(1,0,0,1,-66.2985,-19.149)">
        <path d="M118.655,38.006C130.361,30.806 143.408,25.512 156.627,22.219C175.175,17.598 195.645,17.534 213.292,26.628C224.274,32.287 233.45,41.276 240.286,51.359C247.126,61.556 253.94,71.77 260.731,82.001C272.486,99.904 276.962,121.84 269.814,143.584C262.077,167.117 244.382,186.796 224.409,200.811C224.092,201.034 223.789,201.244 223.497,201.441C221.263,203.228 218.213,204.663 215.291,206.228C190.677,219.408 162.189,227.563 135.008,218.277C120.299,213.252 107.905,202.654 99.183,189.789C92.343,179.592 85.528,169.378 78.738,159.147C66.912,141.137 62.649,118.577 69.759,97.251C77.59,73.765 95.086,54.352 115.06,40.337C116.537,39.3 117.583,38.634 118.655,38.006ZM198.639,79.939L198.46,79.676C190.559,68.224 180.192,58.14 168.528,51.454C158.906,45.938 147.26,43.052 136.328,46.099C131.926,47.326 127.812,49.398 123.945,51.923C123.945,51.923 123.819,52.002 123.592,52.119C118.275,55.647 113.436,60.06 108.846,64.496C92.646,80.156 79.03,100.302 80.782,123.263C81.541,133.207 85.414,142.745 90.909,151.113C97.672,161.303 104.461,171.478 111.274,181.636C121.011,195.998 136.638,206.054 153.948,207.305C159.776,207.727 165.643,207.339 171.412,206.41C153.786,199.182 139.202,184.825 128.983,169.723C122.229,159.998 115.599,149.67 108.874,139.588C108.73,139.372 108.902,139.644 108.719,139.349C104.839,133.334 103.186,126.015 103.328,118.631C103.41,112.125 104.914,105.569 107.647,99.686C108.038,98.832 108.454,97.997 108.893,97.181C110.069,94.994 111.387,92.901 112.825,90.895L112.834,90.882L112.87,90.832L113.016,90.628L113.064,90.563C118.946,82.443 126.787,75.756 135.15,70.105L135.225,70.055L135.228,70.053L135.501,69.869C135.943,69.572 135.945,69.576 135.945,69.576C146.03,63.235 160.787,69.246 170.054,78.367C174,82.25 177.418,86.649 180.524,91.244C187.436,101.56 194.351,111.878 201.198,122.231C205.848,129.326 209.828,136.954 211.55,145.209L211.644,145.683C213.861,143.137 215.88,140.275 217.519,137.217C221.825,129.093 223.295,119.793 219.515,111.657L219.505,111.637L219.412,111.44C219.137,110.866 218.834,110.295 218.505,109.728L218.455,109.644L218.44,109.619L218.093,109.064C218.15,109.167 218.211,109.275 218.211,109.275C212.48,100.685 206.818,92.048 201.043,83.487C200.239,82.305 199.438,81.123 198.639,79.939ZM216.178,188.835C221.392,185.332 226.128,180.996 230.623,176.652C246.823,160.992 260.439,140.847 258.687,117.885C257.927,107.932 254.051,98.397 248.56,90.036C241.796,79.845 235.008,69.67 228.195,59.512C218.508,45.223 203.001,35.18 185.789,33.863C179.825,33.406 173.819,33.8 167.898,34.763C167.898,34.763 168.892,35.228 170.246,35.893C174.677,37.967 178.93,40.505 182.95,43.35C190.855,48.888 197.932,55.639 204.139,63.11C206.448,65.841 208.631,68.671 210.619,71.622L210.656,71.677L230.595,101.56L230.595,101.561C233.437,105.821 234.201,108.916 235.065,112.491C237.609,123.011 235.71,134.426 230.576,143.967C225.82,152.807 218.754,160.124 210.849,166.3L210.837,166.309L210.783,166.351L210.527,166.551L210.467,166.597C208.449,168.162 206.39,169.643 204.319,171.043L204.244,171.093L204.242,171.094L203.968,171.279C203.525,171.576 203.524,171.573 203.524,171.573C193.453,177.903 178.682,171.902 169.415,162.781C165.469,158.898 162.051,154.499 158.945,149.904C151.473,138.752 143.719,127.814 136.642,116.365C132.633,109.878 129.276,102.909 127.825,95.465C120.035,104.415 115.016,117.031 119.74,128.854C120.108,129.776 120.521,130.687 121.035,131.537L121.123,131.679C127.413,141.757 134.265,151.474 140.908,161.324L141.009,161.472C148.798,172.762 158.961,182.727 170.582,189.487C182.812,196.601 198.308,198.858 211.884,191.439C213.393,190.614 215.56,189.201 215.56,189.201C215.834,189.039 216.003,188.932 216.178,188.835ZM195.942,158.999C196.469,158.454 196.477,158.075 196.734,157.532C199.493,151.694 196.788,144.813 194.143,139.231C192.553,135.876 190.64,132.682 188.58,129.592C182.365,119.205 175.163,109.442 168.425,99.386C164.182,93.108 159.441,86.926 152.717,83.315C149.947,81.827 146.914,80.593 143.712,82.062C140.114,86.149 141.874,93.195 143.682,98.045C145.416,102.698 147.911,107.055 150.665,111.219C157.456,121.401 164.231,131.594 171.045,141.762C175.287,148.04 180.028,154.222 186.752,157.833C189.579,159.351 192.673,160.603 195.942,158.999Z" style="fill-rule:nonzero; fill:#4166dd;"/>
    </g>
</svg>
