<?xml version="1.0" standalone="no"?>
<!DOCTYPE svg PUBLIC "-//W3C//DTD SVG 20010904//EN"
 "http://www.w3.org/TR/2001/REC-SVG-20010904/DTD/svg10.dtd">
<svg version="1.0" xmlns="http://www.w3.org/2000/svg"
 width="200.000000pt" height="200.000000pt" viewBox="0 0 200.000000 200.000000"
 preserveAspectRatio="xMidYMid meet">

<g transform="translate(0.000000,200.000000) scale(0.100000,-0.100000)"
fill="#000000" stroke="none">
<path d="M109 1947 c-18 -12 -39 -34 -46 -47 -10 -19 -13 -217 -13 -883 0
-945 -2 -908 62 -947 32 -20 48 -20 891 -20 945 0 908 -2 947 62 20 32 20 48
20 891 0 945 2 908 -62 947 -32 20 -48 20 -899 20 l-866 0 -34 -23z m991 -152
c77 -73 58 -186 -39 -229 -89 -41 -191 28 -191 129 0 41 36 100 72 119 49 25
121 16 158 -19z m318 -678 l402 -402 -70 -70 -70 -70 -95 95 -95 95 0 -288 0
-287 -95 0 -95 0 0 383 0 382 -95 95 -95 95 0 -478 0 -477 -100 0 -100 0 0
477 0 478 -95 -95 -95 -95 0 -383 0 -383 -96 3 -95 3 1 278 c0 152 -3 277 -7
277 -5 0 -46 -38 -93 -85 -47 -47 -87 -85 -91 -85 -3 0 -37 29 -75 65 l-69 65
405 405 c223 223 407 405 410 405 3 0 186 -181 408 -403z m-841 302 c42 -16
72 -48 83 -89 31 -115 -83 -214 -187 -163 -86 42 -109 149 -47 215 45 47 93
59 151 37z m984 -12 c94 -63 87 -190 -14 -240 -120 -60 -248 84 -174 194 44
67 127 87 188 46z"/>
</g>
</svg>
